<mxfile host="app.diagrams.net" modified="2023-10-13T11:47:30.003Z" agent="Mozilla/5.0 (Windows NT 10.0; Win64; x64; rv:109.0) Gecko/20100101 Firefox/118.0" etag="0uL9CLOcZW8SwWLJouPT" version="22.0.4" type="github">
  <diagram name="Page-1" id="u0XbUU-CEVZJ_GFAOnnE">
    <mxGraphModel dx="2074" dy="1124" grid="0" gridSize="10" guides="1" tooltips="1" connect="1" arrows="1" fold="1" page="1" pageScale="1" pageWidth="1100" pageHeight="850" math="0" shadow="0">
      <root>
        <mxCell id="0" />
        <mxCell id="1" parent="0" />
        <mxCell id="X4H04DXMkJoUD-UTGj0C-5" value="" style="sketch=0;pointerEvents=1;shadow=0;dashed=0;html=1;strokeColor=none;fillColor=#999900;labelPosition=center;verticalLabelPosition=bottom;verticalAlign=top;align=center;outlineConnect=0;shape=mxgraph.veeam2.task_list;" vertex="1" parent="1">
          <mxGeometry x="543" y="175" width="63" height="76" as="geometry" />
        </mxCell>
        <mxCell id="X4H04DXMkJoUD-UTGj0C-6" value="" style="image;aspect=fixed;html=1;points=[];align=center;fontSize=12;image=img/lib/azure2/general/Resource_Group_List.svg;" vertex="1" parent="1">
          <mxGeometry x="507" y="359" width="38" height="37.44" as="geometry" />
        </mxCell>
        <mxCell id="X4H04DXMkJoUD-UTGj0C-7" value="&lt;font style=&quot;font-size: 17px;&quot;&gt;&lt;b&gt;Netwerk Team&lt;/b&gt;&lt;/font&gt;" style="text;strokeColor=none;align=center;fillColor=none;html=1;verticalAlign=middle;whiteSpace=wrap;rounded=0;" vertex="1" parent="1">
          <mxGeometry x="326" y="169" width="156" height="30" as="geometry" />
        </mxCell>
        <mxCell id="X4H04DXMkJoUD-UTGj0C-8" value="" style="shape=flexArrow;endArrow=classic;html=1;rounded=0;" edge="1" parent="1">
          <mxGeometry width="50" height="50" relative="1" as="geometry">
            <mxPoint x="576" y="268" as="sourcePoint" />
            <mxPoint x="576" y="347" as="targetPoint" />
          </mxGeometry>
        </mxCell>
        <mxCell id="X4H04DXMkJoUD-UTGj0C-9" value="" style="sketch=0;pointerEvents=1;shadow=0;dashed=0;html=1;strokeColor=none;fillColor=#FF8000;labelPosition=center;verticalLabelPosition=bottom;verticalAlign=top;align=center;outlineConnect=0;shape=mxgraph.veeam2.task_list;" vertex="1" parent="1">
          <mxGeometry x="550" y="359" width="63" height="76" as="geometry" />
        </mxCell>
        <mxCell id="X4H04DXMkJoUD-UTGj0C-10" value="&lt;font style=&quot;font-size: 15px;&quot;&gt;&lt;b&gt;VMware/IBM/Windows/Linux Teams&lt;br&gt;&lt;/b&gt;&lt;/font&gt;" style="text;strokeColor=none;align=center;fillColor=none;html=1;verticalAlign=middle;whiteSpace=wrap;rounded=0;" vertex="1" parent="1">
          <mxGeometry x="299" y="359" width="183" height="30" as="geometry" />
        </mxCell>
        <mxCell id="X4H04DXMkJoUD-UTGj0C-12" value="" style="verticalLabelPosition=bottom;html=1;verticalAlign=top;align=center;strokeColor=none;fillColor=#00BEF2;shape=mxgraph.azure.automation;pointerEvents=1;" vertex="1" parent="1">
          <mxGeometry x="496" y="171" width="42" height="39" as="geometry" />
        </mxCell>
        <mxCell id="X4H04DXMkJoUD-UTGj0C-13" value="" style="shape=flexArrow;endArrow=classic;html=1;rounded=0;" edge="1" parent="1">
          <mxGeometry width="50" height="50" relative="1" as="geometry">
            <mxPoint x="583" y="451" as="sourcePoint" />
            <mxPoint x="583" y="530" as="targetPoint" />
          </mxGeometry>
        </mxCell>
        <mxCell id="X4H04DXMkJoUD-UTGj0C-14" value="" style="sketch=0;pointerEvents=1;shadow=0;dashed=0;html=1;strokeColor=none;fillColor=#00FF00;labelPosition=center;verticalLabelPosition=bottom;verticalAlign=top;align=center;outlineConnect=0;shape=mxgraph.veeam2.task_list;" vertex="1" parent="1">
          <mxGeometry x="557" y="542" width="63" height="76" as="geometry" />
        </mxCell>
        <mxCell id="X4H04DXMkJoUD-UTGj0C-15" value="&lt;font style=&quot;font-size: 15px;&quot;&gt;&lt;b&gt;Applicatie Teams / POs&lt;br&gt;&lt;/b&gt;&lt;/font&gt;" style="text;strokeColor=none;align=center;fillColor=none;html=1;verticalAlign=middle;whiteSpace=wrap;rounded=0;" vertex="1" parent="1">
          <mxGeometry x="313" y="544" width="183" height="30" as="geometry" />
        </mxCell>
        <mxCell id="X4H04DXMkJoUD-UTGj0C-16" value="" style="shape=image;html=1;verticalAlign=top;verticalLabelPosition=bottom;labelBackgroundColor=#ffffff;imageAspect=0;aspect=fixed;image=https://cdn0.iconfinder.com/data/icons/winter-lollipop/128/Like.png" vertex="1" parent="1">
          <mxGeometry x="515" y="541.5" width="35" height="35" as="geometry" />
        </mxCell>
      </root>
    </mxGraphModel>
  </diagram>
</mxfile>
